<svg xmlns="http://www.w3.org/2000/svg" viewBox="0 0 512 512"><path d="M314.924,120.639a119.981,119.981,0,0,0-104.347,60.613C140.862,169.268,81.956,227.914,87.123,290.943A84.8,84.8,0,0,0,92.8,460.361h214.86c73.662,0,124.627-73.711,99.173-142.372C472.1,240.663,417.13,120.639,314.924,120.639Zm0,32c69.486,0,111.288,77,74.511,135.056a105.59,105.59,0,0,0-97.188-37.667,105.652,105.652,0,0,0-50.585-58.248A88.019,88.019,0,0,1,314.924,152.639Zm-7.261,275.722H92.8a52.809,52.809,0,1,1,9.87-104.688,16.01,16.01,0,0,0,18.7-18.6c-1.045-5.718-2.516-15.593-2.516-19.642a73.733,73.733,0,0,1,146.214-13.521,16.007,16.007,0,0,0,7.477,10.794c10.05,6.055,14.244-1.793,35.11-1.793a73.726,73.726,0,1,1,0,147.451ZM504,240.639a16,16,0,0,1-16,16H470a16,16,0,0,1,0-32h18A16,16,0,0,1,504,240.639Zm-205.152-155v-18a16,16,0,0,1,32,0v18a16,16,0,1,1-32,0Zm149.718,21.325a16,16,0,0,1,0,22.628l-12.727,12.727a15.95,15.95,0,0,1-11.314,4.686c-14.126,0-21.421-17.206-11.313-27.314l12.727-12.727A16,16,0,0,1,448.566,106.964ZM181.173,129.7A16,16,0,0,1,203.8,107.072L216.528,119.8c10.113,10.111,2.809,27.313-11.313,27.313a15.95,15.95,0,0,1-11.314-4.686Z" data-name="8. Cloudy day (sun)"/></svg>