<svg xmlns="http://www.w3.org/2000/svg" width="655.359" height="655.359" fill-rule="evenodd" clip-rule="evenodd" image-rendering="optimizeQuality" shape-rendering="geometricPrecision" text-rendering="geometricPrecision" viewBox="0 0 6.827 6.827"><path d="M5.12313 1.16465l0 4.80702 -3.85508 0 0 -4.80702 3.85508 0zm-0.800433 4.43867c0,-0.10052 0.0401181,-0.196055 0.111126,-0.267067 0.0710079,-0.071 0.166535,-0.111118 0.267063,-0.111118 0.0231929,0 0.0419724,-0.0187795 0.0419724,-0.0419764l0 -3.23c0,-0.0231929 -0.0187795,-0.0419724 -0.0419724,-0.0419724 -0.100524,0 -0.196059,-0.0401181 -0.267063,-0.111126 -0.0710079,-0.0710039 -0.111126,-0.166539 -0.111126,-0.267063 0,-0.0231929 -0.0187795,-0.0419724 -0.0419724,-0.0419724l-2.17027 0c-0.0231929,0 -0.0419724,0.0187795 -0.0419724,0.0419724 0,0.100524 -0.0401181,0.196059 -0.111126,0.267063 -0.0710039,0.0710079 -0.166539,0.111126 -0.267063,0.111126 -0.0231929,0 -0.0419724,0.0187795 -0.0419724,0.0419724l0 3.23c0,0.0231969 0.0187795,0.0419764 0.0419724,0.0419764 0.100528,0 0.196055,0.0401181 0.267063,0.111118 0.0710079,0.0710118 0.111126,0.166547 0.111126,0.267067 0,0.0231969 0.0187795,0.0419764 0.0419724,0.0419764l2.17027 0c0.0231929,0 0.0419724,-0.0187795 0.0419724,-0.0419764zm0.884382 -4.48065c0,-0.0231929 -0.0187795,-0.0419724 -0.0419724,-0.0419724l-3.80798 0 0.317417 -0.225701 3.88407 0 0 4.80702 -0.351535 0 0 -4.53935z"/><path d="M1.73227 5.14172l0 -3.14712 0.0349685 -0.00591732c0.094622,-0.0160079 0.181657,-0.0614606 0.249472,-0.129272 0.067811,-0.067815 0.113264,-0.15485 0.129272,-0.249472l0.00591732 -0.0349685 2.08739 0 0.00591339 0.0349685c0.0160079,0.094622 0.0614646,0.181657 0.129276,0.249472 0.067811,0.067811 0.154846,0.113264 0.249472,0.129272l0.0349646 0.00591732 0 3.14712 -0.0349646 0.00591339c-0.094626,0.0160079 -0.181661,0.0614606 -0.249472,0.129276 -0.067811,0.067811 -0.113268,0.154846 -0.129276,0.249472l-0.00591339 0.0349646 -2.08739 0 -0.00591732 -0.0349646c-0.0160079,-0.094626 -0.0614606,-0.181661 -0.129272,-0.249472 -0.067815,-0.067815 -0.15485,-0.113268 -0.249472,-0.129276l-0.0349685 -0.00591339zm2.30224 -0.742783c0.0095,-0.00811417 0.0147441,-0.0200157 0.0147441,-0.0326457l0 -0.467358 0.0354488 -0.0055748c0.0687441,-0.0108031 0.132039,-0.0432323 0.181224,-0.0924134 0.0619685,-0.0619685 0.0964291,-0.145138 0.0964291,-0.232787 0,-0.0876535 -0.0344606,-0.170819 -0.0964291,-0.232787 -0.049185,-0.0491811 -0.11248,-0.0816063 -0.181224,-0.0924134l-0.0354488 -0.00557087 0 -0.468067c0,-0.0164606 -0.0114016,-0.0296929 -0.0244094,-0.0384409l-0.130937 -0.0880512 -0.00494488 -0.0102441c-0.0367992,-0.0763031 -0.0865748,-0.148165 -0.14461,-0.209831 -0.0623583,-0.0662598 -0.135283,-0.122146 -0.216614,-0.163142 -0.0333937,-0.0168268 -0.0825236,-0.100413 -0.103272,-0.132953 -0.00875984,-0.0137402 -0.0175197,-0.0274724 -0.0264291,-0.0411181 -0.0429173,-0.0657087 -0.113378,-0.173189 -0.202449,-0.173189 -0.0108937,0 -0.0215315,0.00166929 -0.0319173,0.00494882 -0.0740276,0.0233701 -0.139697,0.134996 -0.179043,0.197409 -0.017378,0.027563 -0.0347441,0.0554803 -0.0534646,0.0821417 -0.0135512,0.0192992 -0.033189,0.0466496 -0.0548031,0.0569488 -0.0846732,0.0403268 -0.161102,0.0964213 -0.226028,0.164039 -0.0605276,0.0630433 -0.110421,0.135843 -0.148118,0.214661l-0.00493701 0.0103307 -0.140606 0.0945472c-0.0095,0.00811417 -0.0147402,0.0200157 -0.0147402,0.0326457l0 0.467362 -0.0354528 0.00557087c-0.0687441,0.0108031 -0.132039,0.0432323 -0.181224,0.0924134 -0.0619646,0.0619685 -0.0964291,0.145134 -0.0964291,0.232787 0,0.0876496 0.0344646,0.170819 0.0964291,0.232787 0.049185,0.0491811 0.11248,0.0816142 0.181224,0.0924134l0.0354528 0.0055748 0 0.468063c0,0.0164606 0.0114016,0.0296929 0.0244094,0.0384409l0.130937 0.0880472 0.00493701 0.0103307c0.0377008,0.0788189 0.0875748,0.151614 0.148102,0.214657 0.0649331,0.0676339 0.141354,0.123697 0.226047,0.164051 0.0216339,0.0103031 0.0412874,0.0376654 0.0548543,0.0569803 0.0187323,0.0266772 0.0361024,0.0546142 0.0534843,0.0821929 0.00479528,0.00760236 0.00958661,0.0152087 0.0144094,0.0227913 0.0402205,0.0633268 0.110354,0.179476 0.196476,0.179476 0.0126142,0 0.0249291,-0.00198819 0.0369291,-0.00587008 0.079937,-0.0258543 0.148846,-0.14089 0.191866,-0.208354 0.0207717,-0.0325787 0.0699134,-0.116173 0.103346,-0.133031 0.0813386,-0.0410079 0.154276,-0.0968819 0.216642,-0.163154 0.0580394,-0.0616614 0.107791,-0.133512 0.144587,-0.209815l0.00494488 -0.0102441 0.140606 -0.0945591z"/><rect width="6.827" height="6.827" fill="none"/></svg>