<svg xmlns="http://www.w3.org/2000/svg" width="512" height="512" viewBox="0 0 135.467 135.467"><path style="line-height:normal;font-variant-ligatures:normal;font-variant-position:normal;font-variant-caps:normal;font-variant-numeric:normal;font-variant-alternates:normal;font-variant-east-asian:normal;font-feature-settings:normal;font-variation-settings:normal;text-indent:0;text-align:start;text-decoration-line:none;text-decoration-style:solid;text-decoration-color:#000;text-transform:none;text-orientation:mixed;shape-padding:0;shape-margin:0;inline-size:0;isolation:auto;mix-blend-mode:normal" d="m 3250.3206,157.10832 a 2.6458815,2.6457783 0 0 0 -1.8391,0.77515 2.6458815,2.6457783 0 0 0 0,3.74241 c 0.8112,0.81132 1.126,1.98247 0.8287,3.09076 -0.2966,1.10767 -1.155,1.965 -2.2622,2.2624 v 0.001 c -1.1081,0.29577 -2.2789,-0.0183 -3.0893,-0.82993 a 2.6458815,2.6457783 0 0 0 -3.742,-0.004 2.6458815,2.6457783 0 0 0 0,3.74292 c 1.1726,1.17446 2.6442,1.95506 4.2156,2.29495 v 3.36879 c -4.0714,3.87141 -8.0476,5.8912 -11.6054,7.7618 -3.6973,1.94382 -7.3414,3.88289 -8.9437,7.95145 a 2.6460995,2.6460995 0 0 0 -0.2651,1.15445 2.6460995,2.6460995 0 0 0 0,0.0558 v 49.78766 h -2.203 a 2.6460995,2.6460995 0 0 0 -2.6447,2.64635 v 19.79311 a 2.6460995,2.6460995 0 0 0 2.6447,2.64428 h 2.2035 v 11.29285 a 2.6460995,2.6460995 0 0 0 2.6463,2.64635 h 41.6269 a 2.6460995,2.6460995 0 0 0 2.6448,-2.64635 v -11.29285 h 2.2045 a 2.6460995,2.6460995 0 0 0 2.6443,-2.64428 v -19.79311 a 2.6460995,2.6460995 0 0 0 -2.6443,-2.64635 h -2.2029 v -49.8435 a 2.6460995,2.6460995 0 0 0 0,-0.108 2.6460995,2.6460995 0 0 0 -0.1916,-1.06816 c -1.6777,-4.14641 -5.4068,-6.0108 -9.1694,-7.96282 -3.5415,-1.83717 -7.4665,-3.84947 -11.4517,-7.71374 v -3.94756 c 2.2926,-1.03935 4.0381,-3.05826 4.7011,-5.53351 v 0.002 c 0.7848,-2.92652 -0.055,-6.06225 -2.1973,-8.20467 a 2.6458815,2.6457783 0 0 0 -1.9037,-0.77515 z m -3.5885,23.39754 h 0.6484 c 4.1257,3.6504 8.1775,5.82535 11.3525,7.47241 1.1914,0.61816 1.9553,1.11704 2.8297,1.6428 l -29.2555,0.14676 c 0.8933,-0.56349 1.71,-1.1033 2.9782,-1.76992 3.1639,-1.66343 7.2512,-3.83888 11.4467,-7.49205 z m -15.0641,14.5588 h 33.573 v 47.19919 h -6.9096 v -5.38107 -1.71514 -18.96835 a 2.6460995,2.6460995 0 0 0 -0.2424,-1.10743 c -1.0326,-2.24283 -3.0265,-2.99075 -4.5894,-3.70313 -1.5629,-0.71238 -3.098,-1.41124 -4.6525,-2.81481 a 2.6460995,2.6460995 0 0 0 -1.746,-0.68162 2.6460995,2.6460995 0 0 0 -1.7814,0.66405 c -1.5975,1.41349 -3.162,2.11789 -4.7424,2.84788 -1.5801,0.72999 -3.6131,1.55772 -4.5625,3.86127 a 2.6460995,2.6460995 0 0 0 -0.1989,1.00975 v 18.89239 1.71514 5.38107 h -6.9107 v -47.18523 z m 65.4878,9.47178 a 2.6458249,2.6458249 0 0 0 -0.013,5.2e-4 2.6458249,2.6458249 0 0 0 -1.9706,0.91985 2.6458249,2.6458249 0 0 0 0.2791,3.73207 c 5.4279,4.67237 8.5363,11.48301 8.5079,18.64486 -0.028,7.16185 -3.1895,13.94676 -8.6542,18.57612 a 2.6458249,2.6458249 0 0 0 -0.3085,3.73052 2.6458249,2.6458249 0 0 0 3.7285,0.30851 c 6.6434,-5.62796 10.491,-13.88879 10.5254,-22.59552 0.034,-8.70671 -3.7489,-16.99588 -10.3476,-22.67613 a 2.6458249,2.6458249 0 0 0 -1.7457,-0.64079 z m -100.1493,5.2e-4 a 2.6458249,2.6458249 0 0 0 -1.7597,0.64028 c -6.5987,5.68025 -10.382,13.96942 -10.3476,22.67613 0.034,8.70673 3.8814,16.96756 10.5249,22.59552 a 2.6458249,2.6458249 0 0 0 3.729,-0.30851 2.6458249,2.6458249 0 0 0 -0.309,-3.73052 c -5.4647,-4.62936 -8.626,-11.41427 -8.6543,-18.57612 -0.028,-7.16185 3.0803,-13.97249 8.5079,-18.64486 a 2.6458249,2.6458249 0 0 0 0.2792,-3.73207 2.6458249,2.6458249 0 0 0 -1.9704,-0.91985 z m 90.7407,7.30809 a 2.6458249,2.6458249 0 0 0 -2.0195,0.95911 2.6458249,2.6458249 0 0 0 0.3492,3.72484 c 3.3465,2.77144 5.2792,6.88736 5.2716,11.23239 -0.01,4.34504 -1.9542,8.45515 -5.3102,11.21482 a 2.6458249,2.6458249 0 0 0 -0.3633,3.72483 2.6458249,2.6458249 0 0 0 3.7243,0.36329 c 4.5733,-3.76048 7.23,-9.37232 7.2403,-15.29312 0.011,-5.9208 -2.6276,-11.54193 -7.1877,-15.31845 a 2.6458249,2.6458249 0 0 0 -1.6346,-0.6072 2.6458249,2.6458249 0 0 0 -0.07,-5.3e-4 z m -81.4168,5.3e-4 a 2.6458249,2.6458249 0 0 0 -1.6346,0.60719 c -4.56,3.77652 -7.1979,9.39765 -7.1876,15.31845 0.011,5.9208 2.6672,11.53264 7.2403,15.29312 a 2.6458249,2.6458249 0 0 0 3.7245,-0.36328 2.6458249,2.6458249 0 0 0 -0.3632,-3.72484 c -3.3563,-2.75967 -5.3028,-6.86978 -5.3105,-11.21482 -0.01,-4.34503 1.9251,-8.46095 5.2716,-11.23239 a 2.6458249,2.6458249 0 0 0 0.3492,-3.72483 2.6458249,2.6458249 0 0 0 -2.0897,-0.9586 z m 40.7313,1.92184 c 1.5886,1.10099 3.1181,1.92516 4.2424,2.43758 1.3525,0.6166 1.63,0.87292 1.7361,0.9648 v 17.99787 1.71514 5.38107 h -11.9337 v -5.38107 -1.71514 -17.99787 c 0.084,-0.0865 0.3267,-0.33144 1.6899,-0.96118 1.1149,-0.51499 2.6561,-1.33959 4.2653,-2.4412 z m -31.2155,5.34335 a 2.6458299,2.6458299 0 0 0 -1.5447,0.47284 c -2.6278,1.82226 -4.2201,4.80676 -4.2679,8.00416 -0.048,3.1974 1.4538,6.22829 4.0256,8.1287 a 2.6458299,2.6458299 0 0 0 3.6989,-0.55655 2.6458299,2.6458299 0 0 0 -0.5543,-3.69952 c -1.2034,-0.88913 -1.9016,-2.2971 -1.8791,-3.79305 0.024,-1.49594 0.7625,-2.88364 1.992,-3.7362 a 2.6458299,2.6458299 0 0 0 0.6663,-3.68144 2.6458299,2.6458299 0 0 0 -2.1368,-1.13894 z m 62.4557,0 a 2.6458299,2.6458299 0 0 0 -2.1371,1.13894 2.6458299,2.6458299 0 0 0 0.6663,3.68144 c 1.2295,0.85256 1.9695,2.24026 1.992,3.7362 0.021,1.49595 -0.6755,2.90392 -1.8788,3.79305 a 2.6458299,2.6458299 0 0 0 -0.5546,3.69952 2.6458299,2.6458299 0 0 0 3.6989,0.55655 c 2.572,-1.90041 4.0738,-4.9313 4.0256,-8.1287 -0.048,-3.1974 -1.6396,-6.1819 -4.2674,-8.00416 a 2.6458299,2.6458299 0 0 0 -1.5449,-0.47284 z m -54.2444,28.44425 h 14.0431 a 2.6460995,2.6460995 0 0 0 0.3616,0.0248 h 17.2228 a 2.6460995,2.6460995 0 0 0 0.3612,-0.0248 h 11.8411 2.2035 v 14.50196 h -46.0333 z m 4.8483,19.79466 h 36.3357 v 8.6465 h -36.3357 z" color="#000" font-family="sans-serif" font-weight="400" overflow="visible" transform="matrix(1.08938 0 0 1.0909 -3469.577 -171.39)"/></svg>