<svg xmlns="http://www.w3.org/2000/svg" width="24" height="24" fill="none" viewBox="0 0 24 24"><path fill="#000" fill-rule="evenodd" d="M9.82429 2.29289C10.0987 2.56727 10.1896 2.97563 10.0574 3.3405C9.73937 4.21878 9.5655 5.16731 9.5655 6.15866C9.5655 10.7293 13.2707 14.4345 17.8413 14.4345C18.8327 14.4345 19.7812 14.2606 20.6595 13.9426C21.0244 13.8104 21.4327 13.9013 21.7071 14.1757C21.9815 14.4501 22.0724 14.8585 21.9402 15.2233C20.5095 19.1743 16.7239 22 12.2758 22C6.60065 22 2 17.3993 2 11.7242C2 7.27609 4.82567 3.49054 8.77669 2.05975C9.14155 1.92762 9.5499 2.01851 9.82429 2.29289ZM7.64652 4.86291C5.4457 6.35084 4 8.86947 4 11.7242C4 16.2948 7.70522 20 12.2758 20C15.1305 20 17.6492 18.5543 19.1371 16.3535C18.7125 16.4069 18.28 16.4345 17.8413 16.4345C12.1662 16.4345 7.5655 11.8338 7.5655 6.15866C7.5655 5.72003 7.59304 5.28755 7.64652 4.86291Z" clip-rule="evenodd"/><path fill="#000" d="M17 4C17 4.55229 16.5523 5 16 5 15.4477 5 15 4.55229 15 4 15 3.4477 15.4477 3 16 3 16.5523 3 17 3.4477 17 4zM20 7C20.5523 7 21 6.55229 21 6 21 5.4477 20.5523 5 20 5 19.4477 5 19 5.4477 19 6 19 6.55229 19.4477 7 20 7zM15 8C15 8.55229 14.5523 9 14 9 13.4477 9 13 8.55229 13 8 13 7.4477 13.4477 7 14 7 14.5523 7 15 7.4477 15 8zM18 11C18.5523 11 19 10.5523 19 10 19 9.4477 18.5523 9 18 9 17.4477 9 17 9.4477 17 10 17 10.5523 17.4477 11 18 11z"/></svg>