<svg xmlns="http://www.w3.org/2000/svg" data-name="Layer 1" viewBox="0 0 100 100"><path fill="#231f20" d="M84.07,26.72a12.84,12.84,0,0,1-6.32-22,2,2,0,0,0-1-3.42,16.86,16.86,0,1,0-3.27,33.4,17.13,17.13,0,0,0,4.69-.66,16.64,16.64,0,0,0,6.87-3.92,2,2,0,0,0-1-3.42Zm-7,3.5A12.86,12.86,0,1,1,70,5.5a12.13,12.13,0,0,1,2.36-.45,16.87,16.87,0,0,0,7,24.29A13.2,13.2,0,0,1,77.07,30.22Z"/><path fill="#231f20" d="M92.31 11.79a2 2 0 0 0-1.42-1.32l-3.33-.83L85.74 6.72A2 2 0 0 0 84 5.78a2 2 0 0 0-1.69.94L80.52 9.64l-3.33.83a2 2 0 0 0-1 3.23l2.21 2.63-.24 3.43a2 2 0 0 0 2.74 2L84 20.46l3.19 1.29a2 2 0 0 0 1.92-.24A2 2 0 0 0 90 19.76l-.24-3.43 2.21-2.63A2 2 0 0 0 92.31 11.79zm-6.16 2.59a2 2 0 0 0-.46 1.42l.07 1-1-.39a2.12 2.12 0 0 0-.75-.14 2.17 2.17 0 0 0-.75.14l-1 .39.08-1a2 2 0 0 0-.47-1.42l-.67-.8 1-.26a2 2 0 0 0 1.22-.88l.55-.88.56.88a1.94 1.94 0 0 0 1.21.88l1 .26zM43.47 76.05a1.61 1.61 0 0 0 0-.31L43 68.31l14.15-6.94 0 0 .21-.13.11-.08 0 0 6-4.94a2 2 0 0 0 .73-1.55V44.32a2 2 0 0 0-3.38-1.45l-8.72 8.31L42.13 54.84l-.37-5.72 3.72-10.45 2-5.25a2 2 0 0 0-.35-2l-3-3.46-2.25-9.26a2 2 0 0 0-.68-1.05 10.59 10.59 0 0 0-9.32-6.06c-5.91 0-10.72 5.33-10.72 11.89a12.63 12.63 0 0 0 2.38 7.43v6.75l-4.78 6.79a2 2 0 0 0-.37 1.15v42l-10 7.35a2 2 0 0 0 1.18 3.61H25.52c1 0 12.33.48 22.72.48 5.49 0 10.73-.12 14-.49 6.89-.76 9.22-3.41 10-5.5.86-2.41 0-5.17-2.31-7.55C62.55 77.9 50.9 76.25 43.47 76.05zM60.29 53.69L57 56.37l-1.35-3L60.29 49zM27.55 37.3v-8l1.81-.8v4a2 2 0 0 0 1.18 1.82l10.55 4.73-2.33 6.56-9.08-6.74zm15.73-4.17l-.81 2.16L34 31.49l0 0-.58-.26V26.44l5.35-3.88 1.66 6.82a1.94 1.94 0 0 0 .42.82zM31.89 15.6a6.43 6.43 0 0 1 5.3 3.11l-6.84 5-4.87 2.17a9.24 9.24 0 0 1-.31-2.35C25.17 19.14 28.18 15.6 31.89 15.6zm-10.84 75h7.38l-3.74 4h-9zm47.44 1.1c-.5 1.39-3 2.46-6.64 2.87-7.06.78-23.79.39-31.8.14l3.88-4.11H53.05a2 2 0 1 0 0-4H22.4V46.25L26 41.13l2.59 1.93 9.2 6.83.51 7.87a.13.13 0 0 0 0 .06 1 1 0 0 0 0 .24.75.75 0 0 0 0 .16s0 .06 0 .1l.06.12a.61.61 0 0 0 .07.14 1.07 1.07 0 0 0 .13.21l.08.11c.06.06.11.12.18.18l.1.09a1.33 1.33 0 0 0 .19.14l.14.08a1.11 1.11 0 0 0 .19.09l.17.06.2.05.17 0h.26s0 0 .07 0h0l.28 0 .13 0 .1 0L52.2 55.43l1.45 3.2L40 65.31h0l-5 2.46L29.56 54.11a2 2 0 0 0-3.72 1.48l6.23 15.68a2 2 0 0 0 1.86 1.26 2.09 2.09 0 0 0 .88-.2l4.31-2.12L39.49 76s0 0 0 .07c-1.71.07-2.81.18-3 .21a2 2 0 1 0 .45 4c.2 0 20.22-2.14 30.14 8C68.29 89.48 68.81 90.76 68.49 91.67z"/></svg>