<svg xmlns="http://www.w3.org/2000/svg" viewBox="0 0 32 32"><path d="M29.6,10.24A2.45,2.45,0,0,0,28,9.15a2.42,2.42,0,0,0-.46-.06L26.84,8a2.49,2.49,0,0,0-3.21-.65,34.38,34.38,0,0,0-6.29,3.82c-.39.3-.75.59-1.1.89A1,1,0,0,0,16,12a1.55,1.55,0,0,0-.21,0c-.36-.3-.73-.61-1.13-.92A34.33,34.33,0,0,0,8.37,7.31,2.5,2.5,0,0,0,5.16,8L4.47,9a2.14,2.14,0,0,0-.5.06,2.5,2.5,0,0,0-.82,4.54L11.45,19,7.65,21.4a2.5,2.5,0,0,0-.75,3.45,2.45,2.45,0,0,0,1.57,1.09A2.48,2.48,0,0,0,9,26a2.45,2.45,0,0,0,1.35-.4l5.71-3.68,5.57,3.59a2.45,2.45,0,0,0,1.35.4,2.48,2.48,0,0,0,.54-.06,2.45,2.45,0,0,0,1.57-1.09,2.5,2.5,0,0,0-.75-3.45L20.69,19l8.16-5.26a2.5,2.5,0,0,0,.75-3.45Zm-11,2.51a32.37,32.37,0,0,1,5.92-3.6c.39-.18.66-.11.69-.06l.48.72L17,15.38V13.93a.75.75,0,0,0,.3-.17C17.69,13.43,18.11,13.09,18.56,12.75Zm-11-3.63a31.46,31.46,0,0,1,5.92,3.59c.46.35.9.7,1.3,1a1,1,0,0,0,.26.15v1.38L6.38,9.74l.45-.69S7.13,8.94,7.52,9.12Zm-3.29,2.8A.54.54,0,0,1,4,11.61a.52.52,0,0,1,.07-.38A.54.54,0,0,1,4.39,11h.16a1.09,1.09,0,0,0,.23.09l9.44,6.08-.92.59ZM23.27,23a.5.5,0,0,1,.15.69.53.53,0,0,1-.32.22.46.46,0,0,1-.37-.07l-4.81-3.1.92-.59ZM28,11.69a.53.53,0,0,1-.22.32L9.27,23.92A.51.51,0,0,1,8.9,24a.53.53,0,0,1-.32-.22.5.5,0,0,1,.15-.69l18.5-11.91a.51.51,0,0,1,.27-.08h.11a.54.54,0,0,1,.31.22A.51.51,0,0,1,28,11.69Z" data-name="al quran"/></svg>