<svg xmlns="http://www.w3.org/2000/svg" width="48" height="48" fill="none" viewBox="0 0 48 48"><path fill="#000" d="M23.9839 5.25003C23.6911 5.25432 23.4116 5.37255 23.2046 5.57962C20.5058 8.27839 16.6327 9.78777 13.2576 11.6038C11.57 12.5118 9.99648 13.5059 8.8015 14.8763C7.64886 16.1981 6.91321 17.9109 6.86132 19.979C6.8475 20.0517 6.84088 20.1255 6.84156 20.1995V41.6089C6.83945 41.758 6.86699 41.906 6.92258 42.0443C6.97817 42.1827 7.0607 42.3086 7.16537 42.4148C7.27005 42.5209 7.39478 42.6052 7.53232 42.6628C7.66986 42.7203 7.81747 42.7499 7.96656 42.7499C8.11565 42.7499 8.26325 42.7203 8.40079 42.6628C8.53833 42.6052 8.66306 42.5209 8.76774 42.4148C8.87241 42.3086 8.95494 42.1827 9.01053 42.0443C9.06612 41.906 9.09367 41.758 9.09156 41.6089V20.1995C9.09156 18.5242 9.60002 17.3846 10.4978 16.355C11.3956 15.3255 12.734 14.4405 14.324 13.585C17.2527 12.0092 20.9672 10.5085 24 7.83109C27.0329 10.5086 30.748 12.0091 33.6768 13.585C35.2668 14.4405 36.6051 15.3255 37.5029 16.355C38.4007 17.3846 38.9084 18.5242 38.9084 20.1995V41.6089C38.9063 41.758 38.9339 41.906 38.9895 42.0443C39.0451 42.1827 39.1276 42.3086 39.2323 42.4148C39.3369 42.5209 39.4617 42.6052 39.5992 42.6628C39.7368 42.7203 39.8844 42.7499 40.0334 42.7499C40.1825 42.7499 40.3301 42.7203 40.4677 42.6628C40.6052 42.6052 40.73 42.5209 40.8346 42.4148C40.9393 42.3086 41.0218 42.1827 41.0774 42.0443C41.133 41.906 41.1606 41.758 41.1584 41.6089V20.1995C41.1584 18.0277 40.3935 16.2466 39.1985 14.8763C38.0035 13.5059 36.43 12.5118 34.7424 11.6038C31.3673 9.78777 27.4942 8.27839 24.7954 5.57962C24.6891 5.47322 24.5624 5.38923 24.423 5.33262C24.2837 5.276 24.1343 5.24792 23.9839 5.25003H23.9839Z"/><path fill="#000" d="M23.9194 22.4597L23.8169 22.4627C21.7558 22.5255 20.1207 24.2839 20.1994 26.3452C20.1995 26.3455 20.1994 26.3457 20.1994 26.346L20.2046 26.4954C20.2046 26.4966 20.2046 26.4979 20.2046 26.4991C20.2333 27.2486 20.501 27.9281 20.9033 28.5037C20.2931 29.1211 19.6553 29.8718 19.2876 30.9017C19.0318 31.6182 18.9766 32.4317 18.9016 33.5098C18.8267 34.588 18.785 35.843 18.761 37.0445C18.7129 39.4475 18.7383 41.6382 18.7383 41.6382C18.7418 41.9343 18.8618 42.2171 19.0724 42.4252C19.283 42.6333 19.5672 42.75 19.8633 42.7501H28.1506C28.4467 42.75 28.7308 42.6333 28.9414 42.4252C29.152 42.2171 29.2721 41.9343 29.2756 41.6382C29.2756 41.6382 29.301 39.4475 29.2529 37.0445C29.2289 35.843 29.1865 34.588 29.1115 33.5098C29.0366 32.4317 28.9821 31.6182 28.7263 30.9017C28.3616 29.88 27.73 29.1333 27.1238 28.5176C27.5727 27.8716 27.8459 27.0951 27.8144 26.2537V26.2508L27.8093 26.1014C27.8093 26.1002 27.8093 26.0989 27.8093 26.0977C27.7359 24.1882 26.2134 22.7031 24.3537 22.5345C24.2155 22.4813 24.0682 22.4559 23.9201 22.4598C23.9199 22.4598 23.9196 22.4598 23.9194 22.4598L23.9194 22.4597ZM23.9883 24.709C23.9885 24.709 23.9886 24.709 23.989 24.709C24.8402 24.6836 25.5278 25.3257 25.5608 26.1841L25.5659 26.3335C25.5659 26.3345 25.5659 26.3355 25.5659 26.3365C25.587 26.8859 25.3303 27.3457 24.9258 27.6241C24.7846 27.7212 24.6674 27.8494 24.5833 27.9988C24.4992 28.1482 24.4504 28.3148 24.4405 28.4859C24.4306 28.6571 24.4599 28.8282 24.5263 28.9863C24.5926 29.1443 24.6942 29.2852 24.8233 29.398C25.4021 29.9037 26.344 30.9203 26.6074 31.6582C26.6444 31.7617 26.7969 32.6505 26.8674 33.6658C26.938 34.6811 26.9801 35.9101 27.0037 37.0899C27.0393 38.8692 27.0254 39.7878 27.0205 40.5H20.9934C20.9885 39.7878 20.9747 38.8692 21.0103 37.0899C21.0339 35.9101 21.0759 34.6811 21.1465 33.6658C21.2171 32.6505 21.3696 31.7617 21.4065 31.6582C21.6724 30.9133 22.6298 29.8855 23.2061 29.3841C23.3351 29.2718 23.4369 29.1316 23.5037 28.9741C23.5704 28.8166 23.6004 28.646 23.5913 28.4751C23.5822 28.3043 23.5342 28.1378 23.4511 27.9883C23.368 27.8388 23.2519 27.7102 23.1116 27.6123C22.728 27.3446 22.4726 26.9203 22.4531 26.4126L22.448 26.2632C22.448 26.262 22.448 26.2608 22.448 26.2595C22.415 25.4007 23.0339 24.7377 23.8857 24.7119C23.886 24.7119 23.8862 24.7119 23.8865 24.7119L23.9883 24.709L23.9883 24.709Z"/><path fill="#000" d="M15.9265 23.6617L15.8335 23.6646C15.833 23.6646 15.8325 23.6646 15.832 23.6646 15.8137 23.6651 15.799 23.6762 15.7807 23.677 15.7244 23.686 15.6688 23.6992 15.6145 23.7166 13.7603 23.8958 12.3196 25.4914 12.3911 27.3802 12.3911 27.3804 12.3911 27.3806 12.3911 27.3809L12.3962 27.5208C12.3962 27.522 12.3962 27.5232 12.3962 27.5245 12.4227 28.2205 12.6888 28.8298 13.0525 29.3716 12.484 29.9537 11.8912 30.6602 11.5466 31.6348 11.304 32.3208 11.2554 33.0791 11.1855 34.084 11.1157 35.0889 11.0761 36.2561 11.0537 37.3726 11.0089 39.6056 11.0332 41.6382 11.0332 41.6382 11.0367 41.9343 11.1567 42.2171 11.3673 42.4252 11.5779 42.6333 11.8621 42.75 12.1582 42.7501H19.8632C20.1593 42.75 20.4435 42.6333 20.6541 42.4252 20.8647 42.2171 20.9847 41.9343 20.9882 41.6382 20.9882 41.6382 21.0125 39.6056 20.9677 37.3726 20.9453 36.2561 20.9057 35.0889 20.8359 34.084 20.7661 33.0791 20.7174 32.3208 20.4748 31.6348 20.1381 30.6827 19.5624 29.9864 19.0048 29.409 19.412 28.7988 19.6588 28.0734 19.6296 27.2894V27.2872L19.6252 27.1465C19.625 27.1453 19.6247 27.1441 19.6245 27.1429 19.5496 25.1765 17.8936 23.6024 15.9287 23.6617 15.9283 23.6617 15.9275 23.6616 15.9272 23.6617 15.9269 23.6617 15.9267 23.6617 15.9264 23.6617L15.9265 23.6617zM15.9939 25.9102C15.9946 25.9102 15.9954 25.9102 15.9961 25.9102 16.7385 25.8875 17.345 26.4522 17.376 27.2256L17.3812 27.3684C17.3812 27.3697 17.3812 27.3709 17.3812 27.3721 17.4 27.868 17.1702 28.278 16.8157 28.5242 16.6757 28.6215 16.5596 28.7494 16.4763 28.8982 16.3929 29.0469 16.3445 29.2127 16.3346 29.3829 16.3247 29.5532 16.3537 29.7234 16.4193 29.8808 16.4848 30.0383 16.5854 30.1787 16.7132 30.2915 17.2474 30.7628 18.1156 31.7139 18.3531 32.3855 18.3827 32.4694 18.5264 33.2979 18.5919 34.24 18.6573 35.1822 18.6959 36.3226 18.7178 37.4173 18.7501 39.0264 18.7377 39.813 18.7332 40.5H13.2876C13.2832 39.813 13.2708 39.0264 13.303 37.4173 13.325 36.3226 13.3643 35.1822 13.4297 34.24 13.4952 33.2979 13.6381 32.4694 13.6678 32.3855 13.9075 31.7075 14.7905 30.7463 15.3223 30.2791 15.4502 30.1668 15.5509 30.027 15.6169 29.8701 15.6829 29.7133 15.7124 29.5435 15.7033 29.3736 15.6942 29.2037 15.6467 29.038 15.5644 28.8891 15.482 28.7402 15.3669 28.612 15.2278 28.514 14.8906 28.2763 14.6622 27.8968 14.6448 27.4388L14.6397 27.2981C14.6397 27.2972 14.6397 27.2962 14.6397 27.2952 14.6102 26.5201 15.1572 25.9359 15.9009 25.9131L15.9939 25.9102 15.9939 25.9102zM31.9189 23.6617L31.8259 23.6646C31.8254 23.6646 31.8249 23.6646 31.8245 23.6646 31.8061 23.6651 31.7914 23.6762 31.7732 23.677 31.7166 23.6859 31.6608 23.6992 31.6062 23.7166 29.7522 23.8962 28.3124 25.4921 28.3843 27.3809L28.3835 27.3772 28.3886 27.5208C28.3886 27.522 28.3886 27.5232 28.3886 27.5244 28.4151 28.2205 28.6812 28.8297 29.0449 29.3716 28.4764 29.9536 27.8837 30.6602 27.539 31.6348 27.2965 32.3208 27.2478 33.0791 27.1779 34.084 27.1081 35.0889 27.0685 36.2561 27.0461 37.3726 27.0014 39.6055 27.0256 41.6382 27.0256 41.6382 27.0291 41.9343 27.1492 42.217 27.3598 42.4252 27.5704 42.6333 27.8545 42.75 28.1506 42.75H35.8557C36.1518 42.75 36.4359 42.6333 36.6465 42.4252 36.8571 42.217 36.9772 41.9343 36.9807 41.6382 36.9807 41.6382 37.0049 39.6055 36.9602 37.3726 36.9378 36.2561 36.8982 35.0889 36.8283 34.084 36.7585 33.0791 36.7098 32.3208 36.4673 31.6348 36.1306 30.6828 35.5555 29.9864 34.998 29.409 35.4056 28.798 35.6519 28.0715 35.622 27.2864L35.6228 27.2893 35.6177 27.1465C35.6177 27.1453 35.6177 27.1441 35.6177 27.1428 35.5428 25.1765 33.8861 23.6024 31.9211 23.6616 31.9206 23.6617 31.9202 23.6616 31.9197 23.6616 31.9194 23.6616 31.9192 23.6616 31.9189 23.6616L31.9189 23.6617zM31.987 25.9102C31.9875 25.9102 31.988 25.9102 31.9885 25.9102 32.7319 25.8875 33.3396 26.4535 33.3691 27.2286L33.3743 27.3684C33.3742 27.3697 33.3742 27.3709 33.3743 27.3721 33.3931 27.868 33.1626 28.278 32.8081 28.5242 32.6681 28.6216 32.5521 28.7495 32.4688 28.8983 32.3855 29.0471 32.3372 29.2129 32.3273 29.3831 32.3175 29.5534 32.3466 29.7236 32.4122 29.881 32.4779 30.0384 32.5784 30.1787 32.7063 30.2916 33.2405 30.7628 34.1079 31.7139 34.3454 32.3855 34.3751 32.4694 34.5187 33.2979 34.5842 34.24 34.6497 35.1822 34.689 36.3226 34.7109 37.4173 34.7432 39.0264 34.73 39.813 34.7256 40.5H29.2807C29.2763 39.813 29.2639 39.0264 29.2961 37.4173 29.3181 36.3226 29.3566 35.1822 29.4221 34.24 29.4876 33.2979 29.6312 32.4694 29.6609 32.3855 29.9006 31.7075 30.7829 30.7463 31.3147 30.2791 31.4425 30.1668 31.5433 30.027 31.6093 29.8701 31.6753 29.7133 31.7048 29.5435 31.6957 29.3736 31.6866 29.2037 31.6391 29.038 31.5567 28.8891 31.4744 28.7402 31.3593 28.612 31.2202 28.514 30.883 28.2763 30.6546 27.8968 30.6372 27.4388L30.6328 27.2989C30.6325 27.2977 30.6323 27.2964 30.632 27.2952 30.6026 26.5206 31.1488 25.9366 31.8918 25.9131L31.987 25.9102 31.987 25.9102zM28.3638 12.3743C27.8367 12.304 27.289 12.3355 26.7473 12.4849 26.5632 12.5356 26.3951 12.6324 26.2588 12.766 26.1224 12.8997 26.0223 13.0658 25.9679 13.2488 25.9134 13.4318 25.9065 13.6256 25.9476 13.8121 25.9888 13.9985 26.0767 14.1714 26.2031 14.3145 26.7954 14.9848 26.9222 15.6729 26.8938 15.761 26.8796 15.8051 26.903 15.8356 26.6499 15.9405 26.3968 16.0454 25.8654 16.1461 25.0415 16.0965 24.8627 16.0858 24.684 16.1179 24.5201 16.1902 24.3563 16.2625 24.212 16.3729 24.0994 16.5121 23.9868 16.6514 23.9091 16.8155 23.8727 16.9909 23.8363 17.1662 23.8423 17.3477 23.8901 17.5203 24.4901 19.6859 26.7625 20.9708 28.9292 20.3724 31.0955 19.774 32.3849 17.5038 31.7856 15.3384 31.336 13.7141 29.945 12.5852 28.3638 12.3743zM29.0962 15.1172C29.3275 15.3396 29.5239 15.6028 29.6169 15.939 29.8915 16.9311 29.3261 17.9285 28.3301 18.2037 27.9149 18.3183 27.5104 18.2584 27.1465 18.1106 27.2638 18.0744 27.401 18.0643 27.5119 18.0184 28.2284 17.7214 28.8135 17.1391 29.0354 16.4517 29.1849 15.9887 29.1702 15.5472 29.0962 15.1172zM15.0509 19.6714C15.1987 19.6714 15.345 19.6423 15.4815 19.5858 15.6179 19.5293 15.742 19.4464 15.8464 19.3419 15.9509 19.2375 16.0338 19.1134 16.0903 18.9769 16.1468 18.8405 16.1759 18.6942 16.1759 18.5464 16.1759 18.2481 16.0574 17.9619 15.8464 17.7509 15.6355 17.54 15.3493 17.4214 15.0509 17.4214 14.7526 17.4214 14.4664 17.54 14.2554 17.7509 14.0445 17.9619 13.9259 18.2481 13.9259 18.5464 13.9259 18.6942 13.955 18.8405 14.0116 18.9769 14.0681 19.1134 14.151 19.2375 14.2554 19.3419 14.3599 19.4464 14.4839 19.5293 14.6204 19.5858 14.7569 19.6423 14.9032 19.6714 15.0509 19.6714zM22.2818 13.2285C22.4296 13.2285 22.5759 13.1994 22.7123 13.1429 22.8488 13.0863 22.9729 13.0035 23.0773 12.899 23.1818 12.7945 23.2647 12.6705 23.3212 12.534 23.3777 12.3975 23.4068 12.2512 23.4068 12.1035 23.4068 11.8051 23.2883 11.519 23.0773 11.308 22.8663 11.097 22.5802 10.9785 22.2818 10.9785 21.9835 10.9785 21.6973 11.097 21.4863 11.308 21.2754 11.519 21.1568 11.8051 21.1568 12.1035 21.1568 12.2512 21.1859 12.3975 21.2425 12.534 21.299 12.6705 21.3819 12.7945 21.4863 12.899 21.5908 13.0035 21.7148 13.0863 21.8513 13.1429 21.9878 13.1994 22.1341 13.2285 22.2818 13.2285zM36.1165 21.7222C36.2642 21.7222 36.4105 21.6931 36.547 21.6365 36.6835 21.58 36.8075 21.4971 36.912 21.3927 37.0164 21.2882 37.0993 21.1642 37.1558 21.0277 37.2124 20.8912 37.2415 20.7449 37.2415 20.5972 37.2415 20.2988 37.1229 20.0127 36.912 19.8017 36.701 19.5907 36.4148 19.4722 36.1165 19.4722 35.8181 19.4722 35.5319 19.5907 35.321 19.8017 35.11 20.0127 34.9915 20.2988 34.9915 20.5972 34.9915 20.7449 35.0206 20.8912 35.0771 21.0277 35.1336 21.1642 35.2165 21.2882 35.321 21.3927 35.4254 21.4971 35.5494 21.58 35.6859 21.6365 35.8224 21.6931 35.9687 21.7222 36.1165 21.7222z"/></svg>